<?xml version="1.0" encoding="utf-8"?>
<!-- Generator: Adobe Illustrator 16.0.1, SVG Export Plug-In . SVG Version: 6.00 Build 0)  -->
<!DOCTYPE svg PUBLIC "-//W3C//DTD SVG 1.1//EN" "http://www.w3.org/Graphics/SVG/1.1/DTD/svg11.dtd">
<svg version="1.1" id="Layer_1" xmlns="http://www.w3.org/2000/svg" xmlns:xlink="http://www.w3.org/1999/xlink" x="0px" y="0px"
	 width="100px" height="100px" viewBox="0 0 100 100" enable-background="new 0 0 100 100" xml:space="preserve">
<g>
	<path fill="#FFFFFF" d="M33.15,11.79l5.04,12.172c0.083-0.034,0.164-0.062,0.248-0.097l-5.045-12.176
		c0.207-0.083,0.408-0.172,0.616-0.253L31.058,4.31L29.584,4.92l2.949,7.125C32.735,11.957,32.946,11.877,33.15,11.79z"/>
	<path fill="#FFFFFF" d="M19.807,20.938c0.153-0.159,0.314-0.312,0.471-0.47l9.312,9.315c0.063-0.063,0.129-0.129,0.189-0.189
		l-9.313-9.315c0.156-0.156,0.312-0.315,0.471-0.469l-5.461-5.462l-0.469,0.469l0,0l-0.191,0.19h0.001l-0.469,0.469L19.807,20.938z"
		/>
	<path fill="#FFFFFF" d="M8.704,48.644h13.188c0-0.045-0.003-0.093-0.003-0.142c0-0.041,0.003-0.085,0.003-0.127H8.704
		c0.004-0.223,0.013-0.44,0.019-0.663H1v0.663v0.269v0.665h7.723C8.72,49.086,8.709,48.863,8.704,48.644z"/>
	<path fill="#FFFFFF" d="M84.957,32.545c0.091,0.201,0.17,0.409,0.255,0.613L73.04,38.2c0.031,0.079,0.063,0.166,0.101,0.246
		l12.172-5.043c0.085,0.206,0.175,0.408,0.255,0.615l7.119-2.951l-0.254-0.614l0,0l-0.102-0.246l0,0l-0.249-0.613L84.957,32.545z"/>
	<path fill="#FFFFFF" d="M76.067,19.812c0.158,0.155,0.312,0.314,0.466,0.471l-9.309,9.314c0.058,0.063,0.122,0.126,0.186,0.189
		l9.314-9.315c0.159,0.157,0.317,0.309,0.466,0.469l5.466-5.459l-0.472-0.471l0,0l-0.19-0.188l0,0l-0.472-0.47L76.067,19.812z"/>
	<path fill="#FFFFFF" d="M11.433,34.015c0.082-0.207,0.172-0.409,0.254-0.615l12.175,5.043c0.035-0.081,0.064-0.165,0.099-0.249
		l-12.171-5.04c0.085-0.204,0.165-0.412,0.253-0.615l-7.127-2.951l-0.254,0.612l0,0l-0.076,0.187l-0.281,0.675L11.433,34.015z"/>
	<path fill="#FFFFFF" d="M63.848,85.21l-5.042-12.172c-0.079,0.037-0.164,0.064-0.249,0.102l5.047,12.177
		c-0.207,0.079-0.408,0.17-0.615,0.249l2.948,7.126l1.474-0.609l-2.948-7.126C64.261,85.046,64.054,85.131,63.848,85.21z"/>
	<path fill="#FFFFFF" d="M85.562,62.991c-0.079,0.207-0.17,0.408-0.254,0.615L73.136,58.56c-0.037,0.085-0.064,0.17-0.102,0.249
		l12.172,5.047c-0.084,0.201-0.164,0.408-0.254,0.615l7.119,2.947l0.255-0.615l0,0l0.101-0.243l0.255-0.62L85.562,62.991z"/>
	<path fill="#FFFFFF" d="M77.19,76.071c-0.153,0.158-0.317,0.307-0.472,0.466l-9.314-9.315c-0.063,0.063-0.122,0.128-0.19,0.191
		l9.314,9.315c-0.154,0.159-0.308,0.312-0.472,0.466l5.46,5.461l0.472-0.472l0.191-0.186l0,0l0.466-0.472L77.19,76.071z"/>
	<path fill="#FFFFFF" d="M12.045,64.471c-0.089-0.196-0.168-0.408-0.254-0.615l12.172-5.036c-0.034-0.085-0.062-0.17-0.097-0.255
		l-12.177,5.047c-0.083-0.206-0.171-0.408-0.253-0.614L4.31,65.944l0.255,0.62l0,0l0.104,0.244l0,0l0.253,0.615L12.045,64.471z"/>
	<path fill="#FFFFFF" d="M88.276,47.712c0,0.223,0.01,0.44,0.016,0.663H75.103c0,0.042,0.005,0.086,0.005,0.127
		c0,0.049-0.005,0.097-0.005,0.142h13.189c-0.006,0.22-0.016,0.442-0.016,0.665H96v-0.665v-0.269v-0.663H88.276z"/>
	<path fill="#FFFFFF" d="M20.938,77.2c-0.159-0.154-0.312-0.312-0.47-0.472l9.313-9.315c-0.062-0.063-0.124-0.128-0.189-0.186
		l-9.313,9.31c-0.156-0.153-0.315-0.308-0.468-0.466l-5.461,5.46l0.563,0.562l0.094,0.096l0,0l0.469,0.472L20.938,77.2z"/>
	<path fill="#FFFFFF" d="M35.311,25.393L24.861,7.296l-0.23,0.134L35.08,25.526C35.155,25.481,35.233,25.438,35.311,25.393z"/>
	<path fill="#FFFFFF" d="M32.406,27.312L19.688,10.734l-0.212,0.163l12.723,16.579C32.268,27.422,32.335,27.366,32.406,27.312z"/>
	<path fill="#FFFFFF" d="M74.896,45.169l20.718-2.729l-0.043-0.262l-20.707,2.725C74.874,44.992,74.885,45.078,74.896,45.169z"/>
	<path fill="#FFFFFF" d="M45.157,22.106L42.432,1.391l-0.264,0.033l2.728,20.717C44.979,22.13,45.07,22.117,45.157,22.106z"/>
	<path fill="#FFFFFF" d="M27.473,32.201L10.894,19.479l-0.163,0.21L27.31,32.412C27.362,32.342,27.419,32.271,27.473,32.201z"/>
	<path fill="#FFFFFF" d="M22.832,41.487L2.649,36.078l-0.07,0.256l20.179,5.407C22.782,41.658,22.809,41.573,22.832,41.487z"/>
	<path fill="#FFFFFF" d="M22.139,44.897L1.417,42.17l-0.035,0.264l20.723,2.729C22.116,45.072,22.129,44.987,22.139,44.897z"/>
	<path fill="#FFFFFF" d="M25.522,35.084L7.424,24.633l-0.132,0.233l18.099,10.448C25.434,35.239,25.477,35.161,25.522,35.084z"/>
	<path fill="#FFFFFF" d="M41.739,22.761L36.332,2.584l-0.257,0.07l5.408,20.179C41.568,22.81,41.653,22.783,41.739,22.761z"/>
	<path fill="#FFFFFF" d="M71.608,35.318l18.094-10.446l-0.133-0.232L71.476,35.087C71.523,35.164,71.566,35.242,71.608,35.318z"/>
	<path fill="#FFFFFF" d="M69.689,32.414l16.577-12.718l-0.164-0.214L69.525,32.206C69.578,32.274,69.637,32.344,69.689,32.414z"/>
	<path fill="#FFFFFF" d="M74.238,41.749l20.177-5.405l-0.069-0.258l-20.177,5.405C74.19,41.578,74.217,41.662,74.238,41.749z"/>
	<path fill="#FFFFFF" d="M64.802,27.479l12.723-16.577l-0.212-0.162L64.595,27.314C64.664,27.367,64.732,27.424,64.802,27.479z"/>
	<path fill="#FFFFFF" d="M51.84,22.106c0.09,0.011,0.175,0.023,0.265,0.035l2.73-20.717l-0.271-0.033L51.84,22.106z"/>
	<path fill="#FFFFFF" d="M61.918,25.527L72.366,7.432l-0.228-0.131L61.689,25.394C61.764,25.438,61.844,25.482,61.918,25.527z"/>
	<path fill="#FFFFFF" d="M58.557,23.867c0.085,0.033,0.17,0.063,0.255,0.097l5.036-12.172c0.206,0.086,0.413,0.167,0.614,0.254
		l2.953-7.122l-1.474-0.611l-2.953,7.123c0.207,0.083,0.408,0.171,0.615,0.253L58.557,23.867z"/>
	<path fill="#FFFFFF" d="M48.362,21.894c0.048,0,0.09-0.003,0.135-0.003s0.091,0.003,0.133,0.003V8.708
		c0.226,0.002,0.445,0.013,0.665,0.017V1H48.63h-0.268h-0.663v7.725c0.223-0.004,0.443-0.015,0.663-0.017V21.894z"/>
	<path fill="#FFFFFF" d="M60.921,2.655l-0.254-0.07l-5.408,20.177c0.085,0.021,0.176,0.049,0.255,0.073L60.921,2.655z"/>
	<path fill="#FFFFFF" d="M64.59,69.688l12.718,16.582l0.212-0.164L64.802,69.529C64.728,69.582,64.664,69.641,64.59,69.688z"/>
	<path fill="#FFFFFF" d="M69.525,64.805l16.571,12.719l0.159-0.207L69.685,64.598C69.631,64.667,69.573,64.73,69.525,64.805z"/>
	<path fill="#FFFFFF" d="M61.685,71.612l10.449,18.095l0.228-0.133L61.918,71.479C61.844,71.522,61.764,71.564,61.685,71.612z"/>
	<path fill="#FFFFFF" d="M55.259,74.247l5.402,20.173l0.26-0.069l-5.407-20.178C55.424,74.194,55.344,74.221,55.259,74.247z"/>
	<path fill="#FFFFFF" d="M74.863,52.107l20.702,2.726l0.042-0.26L74.89,51.848C74.885,51.933,74.869,52.018,74.863,52.107z"/>
	<path fill="#FFFFFF" d="M51.84,74.894l2.725,20.719l0.271-0.037l-2.73-20.708C52.015,74.873,51.93,74.884,51.84,74.894z"/>
	<path fill="#FFFFFF" d="M74.169,55.517l20.172,5.407l0.068-0.254l-20.171-5.408C74.217,55.353,74.19,55.438,74.169,55.517z"/>
	<path fill="#FFFFFF" d="M71.476,61.926L89.564,72.37l0.132-0.232L71.604,61.692C71.566,61.767,71.523,61.847,71.476,61.926z"/>
	<path fill="#FFFFFF" d="M38.44,73.14c-0.081-0.037-0.167-0.064-0.248-0.102l-5.041,12.178c-0.204-0.085-0.412-0.17-0.615-0.255
		l-2.95,7.126l0.614,0.249l0,0l0.245,0.106v-0.005l0.614,0.254l2.953-7.12c-0.207-0.085-0.411-0.17-0.616-0.255L38.44,73.14z"/>
	<path fill="#FFFFFF" d="M25.393,61.692L7.299,72.143l0.131,0.233l18.096-10.45C25.481,61.852,25.438,61.767,25.393,61.692z"/>
	<path fill="#FFFFFF" d="M27.312,64.598L10.734,77.322l0.163,0.206l16.579-12.724C27.422,64.735,27.366,64.667,27.312,64.598z"/>
	<path fill="#FFFFFF" d="M48.633,75.106c-0.045,0-0.091,0.005-0.136,0.005s-0.087-0.005-0.13-0.005v13.19
		c-0.223-0.006-0.442-0.011-0.665-0.016V96h0.665h0.266h0.665v-7.719c-0.223,0.005-0.442,0.01-0.665,0.016V75.106z"/>
	<path fill="#FFFFFF" d="M22.76,55.268L2.584,60.675l0.069,0.26l20.181-5.413C22.81,55.442,22.784,55.353,22.76,55.268z"/>
	<path fill="#FFFFFF" d="M36.077,94.351l0.259,0.069l5.405-20.173c-0.085-0.026-0.17-0.053-0.258-0.074L36.077,94.351z"/>
	<path fill="#FFFFFF" d="M42.169,95.575l0.264,0.043l2.728-20.725c-0.09-0.005-0.175-0.016-0.263-0.026L42.169,95.575z"/>
	<path fill="#FFFFFF" d="M35.082,71.479L24.635,89.574l0.231,0.133l10.446-18.095C35.237,71.57,35.159,71.527,35.082,71.479z"/>
	<path fill="#FFFFFF" d="M22.107,51.848l-20.719,2.73l0.035,0.26l20.718-2.72C22.13,52.028,22.118,51.938,22.107,51.848z"/>
	<path fill="#FFFFFF" d="M32.202,69.529L19.479,86.111l0.213,0.159l12.72-16.577C32.342,69.641,32.272,69.582,32.202,69.529z"/>
</g>
</svg>
