<?xml version="1.0" encoding="utf-8"?>
<!-- Generator: Adobe Illustrator 16.0.1, SVG Export Plug-In . SVG Version: 6.00 Build 0)  -->
<!DOCTYPE svg PUBLIC "-//W3C//DTD SVG 1.1//EN" "http://www.w3.org/Graphics/SVG/1.1/DTD/svg11.dtd">
<svg version="1.1" id="Layer_1" xmlns="http://www.w3.org/2000/svg" xmlns:xlink="http://www.w3.org/1999/xlink" x="0px" y="0px"
	 width="10px" height="10px" viewBox="0 0 10 10" enable-background="new 0 0 10 10" xml:space="preserve">
<g>
	<path fill="#4E4C4C" d="M0,8.734C0,8.566,0.063,8.42,0.189,8.294l3.307-3.32L0.189,1.719C0.063,1.593,0,1.446,0,1.28
		C0,1.112,0.063,0.966,0.189,0.84L0.84,0.189C0.966,0.063,1.113,0,1.282,0c0.169,0,0.315,0.063,0.437,0.189L5,3.47l3.281-3.281
		C8.407,0.063,8.554,0,8.72,0C8.888,0,9.034,0.063,9.16,0.189L9.811,0.84C9.937,0.966,10,1.114,10,1.283
		c0,0.169-0.063,0.315-0.189,0.436l-3.307,3.32l3.307,3.255C9.937,8.42,10,8.564,10,8.728C10,8.89,9.937,9.034,9.811,9.16
		L9.16,9.824c-0.125,0.126-0.273,0.189-0.442,0.189c-0.169,0-0.315-0.063-0.436-0.189L5,6.537L1.706,9.824
		c-0.125,0.126-0.27,0.189-0.433,0.189c-0.163,0-0.307-0.063-0.433-0.189L0.189,9.173C0.063,9.047,0,8.901,0,8.734z"/>
</g>
</svg>
